<svg xmlns="http://www.w3.org/2000/svg" xmlns:xlink="http://www.w3.org/1999/xlink" zoomAndPan="magnify" preserveAspectRatio="xMidYMid meet" version="1.0" viewBox="10.77 145.88 353.27 84.31"><defs><g/></defs><path stroke-linecap="butt" transform="matrix(1.080823, 0, 0, 1.080823, 12.779974, 146.882364)" fill="none" stroke-linejoin="miter" d="M 0.00118023 1.001533 L 323.134539 1.001533 " stroke="#ffffff" stroke-width="2" stroke-opacity="1" stroke-miterlimit="4"/><path stroke-linecap="butt" transform="matrix(1.080823, 0, 0, 1.080823, 12.779974, 223.794302)" fill="none" stroke-linejoin="miter" d="M 0.00118023 0.999884 L 84.745621 0.999884 " stroke="#ffffff" stroke-width="2" stroke-opacity="1" stroke-miterlimit="4"/><path stroke-linecap="butt" transform="matrix(0, 1.080823, -1.080823, 0, 12.848209, 146.884678)" fill="none" stroke-linejoin="miter" d="M -0.00172559 1.001629 L 73.159385 1.001629 " stroke="#ffffff" stroke-width="2" stroke-opacity="1" stroke-miterlimit="4"/><path stroke-linecap="butt" transform="matrix(0, 1.080823, -1.080823, 0, 363.108789, 146.884678)" fill="none" stroke-linejoin="miter" d="M -0.00172559 1.000576 L 73.159385 1.000576 " stroke="#ffffff" stroke-width="2" stroke-opacity="1" stroke-miterlimit="4"/><path stroke-linecap="butt" transform="matrix(1.080823, 0, 0, 1.080823, 271.447311, 225.955958)" fill="none" stroke-linejoin="miter" d="M 0.00176465 0.998497 L 84.742592 0.998497 " stroke="#ffffff" stroke-width="2" stroke-opacity="1" stroke-miterlimit="4"/><g fill="#ffffff" fill-opacity="1"><g transform="translate(32.233521, 197.999987)"><g><path d="M 2.039062 0 L 10.195312 0 C 19.910156 0 23.269531 -4.71875 23.191406 -9.195312 C 23.148438 -13.113281 20.269531 -16.351562 13.753906 -16.671875 C 18.3125 -17.511719 20.070312 -19.992188 20.070312 -22.710938 C 20.070312 -25.949219 17.550781 -27.988281 11.394531 -27.988281 L 2.039062 -27.988281 L 2.039062 -27.46875 C 3.238281 -27.109375 3.636719 -26.1875 3.636719 -22.910156 L 3.636719 -5.078125 C 3.636719 -1.800781 3.238281 -0.878906 2.039062 -0.519531 Z M 6.917969 -4.078125 L 6.917969 -16.152344 L 10.996094 -16.152344 C 16.992188 -16.152344 19.550781 -12.792969 19.550781 -8.195312 C 19.550781 -3.757812 17.074219 -0.601562 10.554688 -0.601562 L 8.996094 -0.601562 C 7.277344 -0.601562 6.917969 -1.199219 6.917969 -4.078125 Z M 6.917969 -16.753906 L 6.917969 -27.386719 L 9.957031 -27.386719 C 14.074219 -27.386719 16.433594 -25.308594 16.433594 -21.992188 C 16.433594 -19.070312 14.59375 -16.753906 10.636719 -16.753906 Z M 6.917969 -16.753906 "/></g></g></g><g fill="#ffffff" fill-opacity="1"><g transform="translate(60.695041, 197.999987)"><g><path d="M 1.28125 0 L 7.597656 0 L 7.597656 -0.519531 C 6.355469 -0.878906 5.996094 -1.800781 5.996094 -5.078125 L 5.996094 -13.035156 L 6.039062 -13.035156 C 6.15625 -14.953125 7.597656 -17.191406 8.757812 -18.03125 C 11.113281 -17.351562 12.675781 -16.914062 13.753906 -16.914062 C 15.191406 -16.914062 16.074219 -18.3125 16.074219 -19.191406 C 16.074219 -19.871094 15.074219 -20.269531 13.472656 -20.269531 C 11.554688 -20.269531 10.15625 -19.75 8.917969 -18.832031 C 7.714844 -17.953125 6.636719 -16.59375 5.996094 -15.035156 L 5.996094 -20.03125 L 5.636719 -20.3125 L 1.28125 -18.390625 L 1.28125 -17.953125 C 2.359375 -17.472656 2.878906 -17.074219 2.878906 -14.273438 L 2.878906 -5.078125 C 2.878906 -1.800781 2.519531 -0.878906 1.28125 -0.519531 Z M 1.28125 0 "/></g></g></g><g fill="#ffffff" fill-opacity="1"><g transform="translate(81.481822, 197.999987)"><g><path d="M 1.28125 0 L 7.597656 0 L 7.597656 -0.519531 C 6.398438 -0.878906 5.996094 -1.800781 5.996094 -5.078125 L 5.996094 -20.03125 L 5.675781 -20.3125 L 1.28125 -18.390625 L 1.28125 -17.953125 C 2.398438 -17.472656 2.878906 -17.074219 2.878906 -14.273438 L 2.878906 -5.078125 C 2.878906 -1.800781 2.519531 -0.878906 1.28125 -0.519531 Z M 2 -24.949219 C 2 -23.75 2.957031 -22.75 4.199219 -22.75 C 5.4375 -22.75 6.398438 -23.75 6.398438 -24.949219 C 6.398438 -26.230469 5.476562 -27.1875 4.199219 -27.1875 C 2.957031 -27.1875 2 -26.230469 2 -24.949219 Z M 2 -24.949219 "/></g></g></g><g fill="#ffffff" fill-opacity="1"><g transform="translate(94.473939, 197.999987)"><g><path d="M 9.035156 0.359375 C 13.832031 0.320312 16.351562 -2.519531 16.351562 -5.878906 C 16.351562 -9.875 12.675781 -10.796875 9.636719 -11.792969 C 6.476562 -12.835938 3.917969 -13.875 3.917969 -16.394531 C 3.917969 -18.433594 5.675781 -19.75 8.394531 -19.75 C 11.234375 -19.75 13.792969 -17.914062 15.074219 -15.035156 L 15.472656 -15.113281 L 15.3125 -19.191406 C 14.074219 -19.710938 11.714844 -20.269531 9.117188 -20.269531 C 4.476562 -20.269531 1.839844 -17.832031 1.839844 -14.671875 C 1.839844 -11.035156 4.558594 -9.996094 8.355469 -8.796875 C 11.433594 -7.796875 14.234375 -6.878906 14.234375 -4 C 14.234375 -1.757812 12.394531 -0.28125 9.914062 -0.28125 C 6.277344 -0.320312 3.4375 -2.597656 1.757812 -6.398438 L 1.398438 -6.316406 L 1.757812 -1.480469 C 3.078125 -0.601562 5.835938 0.359375 9.035156 0.359375 Z M 9.035156 0.359375 "/></g></g></g><g fill="#ffffff" fill-opacity="1"><g transform="translate(116.260032, 197.999987)"><g><path d="M 7.558594 0.398438 C 9.914062 0.398438 11.953125 -1.320312 13.675781 -3.277344 L 13.3125 -3.636719 C 11.996094 -2.078125 10.59375 -1.558594 9.476562 -1.558594 C 7.757812 -1.558594 6.636719 -2.597656 6.636719 -5.316406 L 6.636719 -19.429688 L 12.515625 -19.429688 L 12.714844 -19.992188 L 6.636719 -19.992188 L 6.636719 -24.910156 L 6.078125 -24.910156 L 0.960938 -19.992188 L 0.960938 -19.429688 L 3.519531 -19.429688 L 3.519531 -5.316406 C 3.519531 -1.160156 5.039062 0.398438 7.558594 0.398438 Z M 7.558594 0.398438 "/></g></g></g><g fill="#ffffff" fill-opacity="1"><g transform="translate(134.008901, 197.999987)"><g><path d="M 11.914062 0.398438 C 16.632812 0.398438 22.351562 -3.277344 22.351562 -10.117188 C 22.351562 -17.234375 16.871094 -20.269531 11.914062 -20.269531 C 6.4375 -20.269531 1.4375 -15.953125 1.4375 -9.714844 C 1.4375 -2.757812 6.835938 0.398438 11.914062 0.398438 Z M 4.519531 -11.996094 C 4.519531 -15.992188 6.355469 -19.351562 10.433594 -19.511719 C 15.671875 -19.792969 19.3125 -12.914062 19.3125 -7.757812 C 19.3125 -3.878906 17.390625 -0.441406 13.113281 -0.441406 C 7.796875 -0.441406 4.519531 -6.917969 4.519531 -11.996094 Z M 4.519531 -11.996094 "/></g></g></g><g fill="#ffffff" fill-opacity="1"><g transform="translate(162.070694, 197.999987)"><g><path d="M 1.519531 0 L 7.835938 0 L 7.835938 -0.519531 C 6.597656 -0.878906 6.238281 -1.800781 6.238281 -5.078125 L 6.238281 -32.027344 L 5.878906 -32.304688 L 1.519531 -30.386719 L 1.519531 -29.945312 C 2.597656 -29.46875 3.117188 -29.066406 3.117188 -26.269531 L 3.117188 -5.078125 C 3.117188 -1.800781 2.71875 -0.878906 1.519531 -0.519531 Z M 1.519531 0 "/></g></g></g><g fill="#ffffff" fill-opacity="1"><g transform="translate(187.935026, 197.999987)"><g><path d="M 10.914062 0.398438 C 15.191406 0.398438 18.3125 -2.4375 20.351562 -5.238281 L 19.992188 -5.597656 C 18.152344 -3.519531 15.953125 -2.117188 12.875 -2.117188 C 7.675781 -2.117188 4.277344 -5.878906 4.277344 -11.355469 C 4.277344 -15.671875 6.796875 -18.992188 10.515625 -19.632812 C 13.714844 -17.113281 15.59375 -15.953125 16.59375 -15.953125 C 17.871094 -15.953125 19.113281 -17.191406 19.113281 -18.113281 C 19.113281 -19.191406 16.152344 -20.269531 12.316406 -20.269531 C 6.476562 -20.269531 1.4375 -15.714844 1.4375 -9.394531 C 1.4375 -2.957031 6.277344 0.398438 10.914062 0.398438 Z M 10.914062 0.398438 "/></g></g></g><g fill="#ffffff" fill-opacity="1"><g transform="translate(213.078827, 197.999987)"><g><path d="M 1.199219 7.714844 C 3.757812 7.675781 7.277344 6.835938 10.675781 -1 L 16.871094 -15.3125 C 18.191406 -18.3125 19.230469 -19.113281 20.351562 -19.472656 L 20.351562 -19.992188 L 15.914062 -19.992188 L 15.914062 -19.472656 C 17.3125 -19.191406 17.390625 -17.914062 16.273438 -15.3125 L 11.355469 -3.878906 L 6.4375 -15.3125 C 5.15625 -18.3125 4.835938 -19.113281 6.039062 -19.472656 L 6.039062 -19.992188 L 0 -19.992188 L 0 -19.472656 C 0.839844 -19.113281 1.839844 -18.3125 3.078125 -15.3125 L 9.636719 0.078125 C 8.636719 2.160156 7.398438 4.117188 5.996094 5.316406 C 4.15625 4.996094 2 4.398438 0.960938 4.398438 C -0.519531 4.398438 -1.519531 5.835938 -1.519531 6.597656 C -1.519531 7.238281 -0.359375 7.757812 1.199219 7.714844 Z M 1.199219 7.714844 "/></g></g></g><g fill="#ffffff" fill-opacity="1"><g transform="translate(237.223307, 197.999987)"><g><path d="M 10.914062 0.398438 C 15.191406 0.398438 18.3125 -2.4375 20.351562 -5.238281 L 19.992188 -5.597656 C 18.152344 -3.519531 15.953125 -2.117188 12.875 -2.117188 C 7.675781 -2.117188 4.277344 -5.878906 4.277344 -11.355469 C 4.277344 -15.671875 6.796875 -18.992188 10.515625 -19.632812 C 13.714844 -17.113281 15.59375 -15.953125 16.59375 -15.953125 C 17.871094 -15.953125 19.113281 -17.191406 19.113281 -18.113281 C 19.113281 -19.191406 16.152344 -20.269531 12.316406 -20.269531 C 6.476562 -20.269531 1.4375 -15.714844 1.4375 -9.394531 C 1.4375 -2.957031 6.277344 0.398438 10.914062 0.398438 Z M 10.914062 0.398438 "/></g></g></g><g fill="#ffffff" fill-opacity="1"><g transform="translate(262.367096, 197.999987)"><g><path d="M 1.519531 0 L 7.835938 0 L 7.835938 -0.519531 C 6.597656 -0.878906 6.238281 -1.800781 6.238281 -5.078125 L 6.238281 -32.027344 L 5.878906 -32.304688 L 1.519531 -30.386719 L 1.519531 -29.945312 C 2.597656 -29.46875 3.117188 -29.066406 3.117188 -26.269531 L 3.117188 -5.078125 C 3.117188 -1.800781 2.71875 -0.878906 1.519531 -0.519531 Z M 1.519531 0 "/></g></g></g><g fill="#ffffff" fill-opacity="1"><g transform="translate(275.838897, 197.999987)"><g><path d="M 1.28125 0 L 7.597656 0 L 7.597656 -0.519531 C 6.398438 -0.878906 5.996094 -1.800781 5.996094 -5.078125 L 5.996094 -20.03125 L 5.675781 -20.3125 L 1.28125 -18.390625 L 1.28125 -17.953125 C 2.398438 -17.472656 2.878906 -17.074219 2.878906 -14.273438 L 2.878906 -5.078125 C 2.878906 -1.800781 2.519531 -0.878906 1.28125 -0.519531 Z M 2 -24.949219 C 2 -23.75 2.957031 -22.75 4.199219 -22.75 C 5.4375 -22.75 6.398438 -23.75 6.398438 -24.949219 C 6.398438 -26.230469 5.476562 -27.1875 4.199219 -27.1875 C 2.957031 -27.1875 2 -26.230469 2 -24.949219 Z M 2 -24.949219 "/></g></g></g><g fill="#ffffff" fill-opacity="1"><g transform="translate(288.831008, 197.999987)"><g><path d="M 1.28125 0 L 7.597656 0 L 7.597656 -0.519531 C 6.398438 -0.878906 5.996094 -1.800781 5.996094 -5.078125 L 5.996094 -15.953125 C 8.035156 -17.632812 10.195312 -18.953125 12.394531 -18.953125 C 15.914062 -18.953125 17.671875 -16.671875 17.671875 -12.515625 L 17.671875 -5.078125 C 17.671875 -1.800781 17.3125 -0.878906 16.074219 -0.519531 L 16.074219 0 L 22.390625 0 L 22.390625 -0.519531 C 21.152344 -0.878906 20.789062 -1.800781 20.789062 -5.078125 L 20.789062 -13.3125 C 20.789062 -17.992188 18.390625 -20.269531 14.472656 -20.269531 C 11.394531 -20.269531 8.316406 -18.472656 5.996094 -16.59375 L 5.996094 -20.03125 L 5.675781 -20.3125 L 1.28125 -18.390625 L 1.28125 -17.953125 C 2.398438 -17.472656 2.878906 -17.074219 2.878906 -14.273438 L 2.878906 -5.078125 C 2.878906 -1.800781 2.519531 -0.878906 1.28125 -0.519531 Z M 1.28125 0 "/></g></g></g><g fill="#ffffff" fill-opacity="1"><g transform="translate(316.173298, 197.999987)"><g><path d="M 7.117188 11.074219 C 13.714844 11.074219 20.789062 5.796875 20.789062 1.238281 C 20.789062 -1.878906 18.433594 -2.4375 14.394531 -2.679688 L 9.355469 -3 C 6.316406 -3.160156 4.996094 -3.796875 4.957031 -4.878906 C 4.957031 -5.636719 5.519531 -6.039062 6.398438 -6.636719 C 7.636719 -6.117188 9.035156 -5.878906 10.277344 -5.878906 C 13.554688 -5.878906 18.152344 -8.796875 18.152344 -13.394531 C 18.152344 -16.832031 16.152344 -18.792969 13.714844 -19.671875 C 14.113281 -20.230469 14.554688 -20.710938 14.992188 -21.03125 C 16.792969 -20.472656 17.953125 -20.109375 18.953125 -20.109375 C 20.390625 -20.109375 21.230469 -21.46875 21.230469 -22.148438 C 21.230469 -22.75 20.390625 -23.109375 19.152344 -23.109375 C 17.234375 -23.109375 15.792969 -22.390625 14.59375 -21.3125 C 14.074219 -20.910156 13.59375 -20.390625 13.195312 -19.871094 C 12.273438 -20.152344 11.234375 -20.269531 10.277344 -20.269531 C 6.15625 -20.269531 2.359375 -16.914062 2.359375 -12.714844 C 2.359375 -9.753906 3.878906 -7.917969 5.878906 -6.878906 C 4.277344 -5.835938 2.957031 -4.835938 2.957031 -3.359375 C 2.957031 -1.640625 4.078125 -0.800781 5.878906 -0.359375 C 2.640625 1.597656 0.601562 3.636719 0.601562 6.15625 C 0.601562 9.753906 4.078125 11.074219 7.117188 11.074219 Z M 3.277344 4.679688 C 3.277344 2.957031 4.15625 1.320312 6.476562 -0.238281 C 7.195312 -0.121094 7.957031 -0.0390625 8.757812 0 L 14.355469 0.28125 C 17.671875 0.480469 19.230469 1.039062 19.230469 2.917969 C 19.230469 6.078125 14.511719 9.277344 9.394531 9.277344 C 5.675781 9.277344 3.277344 7.558594 3.277344 4.679688 Z M 5.277344 -14.472656 C 5.277344 -17.273438 6.476562 -19.550781 9.316406 -19.671875 C 12.953125 -19.871094 15.273438 -15.191406 15.273438 -11.59375 C 15.273438 -8.875 13.992188 -6.515625 11.035156 -6.515625 C 7.355469 -6.515625 5.277344 -10.996094 5.277344 -14.472656 Z M 5.277344 -14.472656 "/></g></g></g><g fill="#ffffff" fill-opacity="1"><g transform="translate(125.371315, 230.118958)"><g><path d="M 2.238281 0.078125 C 3.261719 0.078125 4.089844 -0.53125 4.089844 -1.578125 C 4.089844 -3.621094 1.171875 -3.121094 1.171875 -4.550781 C 1.171875 -5.148438 1.660156 -5.441406 2.21875 -5.441406 C 2.679688 -5.441406 3.058594 -5.25 3.300781 -4.910156 L 3.800781 -5.332031 C 3.46875 -5.75 2.890625 -6.082031 2.199219 -6.082031 C 1.28125 -6.082031 0.53125 -5.480469 0.53125 -4.5 C 0.53125 -2.570312 3.449219 -3.050781 3.449219 -1.558594 C 3.449219 -0.921875 2.921875 -0.558594 2.25 -0.558594 C 1.570312 -0.558594 1.078125 -0.929688 0.871094 -1.480469 L 0.289062 -1.140625 C 0.601562 -0.398438 1.351562 0.078125 2.238281 0.078125 Z M 2.238281 0.078125 "/></g></g></g><g fill="#ffffff" fill-opacity="1"><g transform="translate(132.2235, 230.118958)"><g><path d="M 4.679688 -6 L 4.679688 -3.320312 L 1.371094 -3.320312 L 1.371094 -6 L 0.730469 -6 L 0.730469 0 L 1.371094 0 L 1.371094 -2.679688 L 4.679688 -2.679688 L 4.679688 0 L 5.320312 0 L 5.320312 -6 Z M 4.679688 -6 "/></g></g></g><g fill="#ffffff" fill-opacity="1"><g transform="translate(140.745724, 230.118958)"><g><path d="M 3.570312 0.078125 C 5.28125 0.078125 6.648438 -1.300781 6.648438 -3 C 6.648438 -4.699219 5.28125 -6.082031 3.570312 -6.082031 C 1.871094 -6.082031 0.488281 -4.699219 0.488281 -3 C 0.488281 -1.300781 1.871094 0.078125 3.570312 0.078125 Z M 3.570312 -0.558594 C 2.21875 -0.558594 1.128906 -1.640625 1.128906 -3 C 1.128906 -4.359375 2.21875 -5.441406 3.570312 -5.441406 C 4.929688 -5.441406 6.011719 -4.359375 6.011719 -3 C 6.011719 -1.640625 4.929688 -0.558594 3.570312 -0.558594 Z M 3.570312 -0.558594 "/></g></g></g><g fill="#ffffff" fill-opacity="1"><g transform="translate(150.367989, 230.118958)"><g><path d="M 2.878906 -6 L 0.730469 -6 L 0.730469 0 L 1.371094 0 L 1.371094 -2.671875 L 2.878906 -2.671875 C 3.808594 -2.671875 4.550781 -3.398438 4.550781 -4.332031 C 4.550781 -5.25 3.808594 -6 2.878906 -6 Z M 2.820312 -3.28125 L 1.371094 -3.28125 L 1.371094 -5.378906 L 2.820312 -5.378906 C 3.421875 -5.378906 3.910156 -4.960938 3.910156 -4.320312 C 3.910156 -3.660156 3.421875 -3.28125 2.820312 -3.28125 Z M 2.820312 -3.28125 "/></g></g></g><g fill="#ffffff" fill-opacity="1"><g transform="translate(157.560178, 230.118958)"><g><path d="M 2.238281 0.078125 C 3.261719 0.078125 4.089844 -0.53125 4.089844 -1.578125 C 4.089844 -3.621094 1.171875 -3.121094 1.171875 -4.550781 C 1.171875 -5.148438 1.660156 -5.441406 2.21875 -5.441406 C 2.679688 -5.441406 3.058594 -5.25 3.300781 -4.910156 L 3.800781 -5.332031 C 3.46875 -5.75 2.890625 -6.082031 2.199219 -6.082031 C 1.28125 -6.082031 0.53125 -5.480469 0.53125 -4.5 C 0.53125 -2.570312 3.449219 -3.050781 3.449219 -1.558594 C 3.449219 -0.921875 2.921875 -0.558594 2.25 -0.558594 C 1.570312 -0.558594 1.078125 -0.929688 0.871094 -1.480469 L 0.289062 -1.140625 C 0.601562 -0.398438 1.351562 0.078125 2.238281 0.078125 Z M 2.238281 0.078125 "/></g></g></g><g fill="#ffffff" fill-opacity="1"><g transform="translate(164.412363, 230.118958)"><g/></g></g><g fill="#ffffff" fill-opacity="1"><g transform="translate(169.294483, 230.118958)"><g><path d="M 4.351562 0 L 5.050781 0 L 2.878906 -6 L 2.171875 -6 L 0 0 L 0.699219 0 L 1.191406 -1.398438 L 3.859375 -1.398438 Z M 1.398438 -2.011719 L 2.53125 -5.238281 L 3.648438 -2.011719 Z M 1.398438 -2.011719 "/></g></g></g><g fill="#ffffff" fill-opacity="1"><g transform="translate(176.816686, 230.118958)"><g><path d="M 5.039062 -6 L 5.039062 -1.070312 L 1.328125 -6 L 0.730469 -6 L 0.730469 0 L 1.371094 0 L 1.371094 -4.929688 L 5.070312 0 L 5.671875 0 L 5.671875 -6 Z M 5.039062 -6 "/></g></g></g><g fill="#ffffff" fill-opacity="1"><g transform="translate(185.688924, 230.118958)"><g><path d="M 0.730469 0 L 2.371094 0 C 4.019531 0 5.371094 -1.339844 5.371094 -3 C 5.371094 -4.660156 4.019531 -6 2.371094 -6 L 0.730469 -6 Z M 1.359375 -0.640625 L 1.359375 -5.359375 L 2.359375 -5.359375 C 3.691406 -5.359375 4.730469 -4.351562 4.730469 -3 C 4.730469 -1.648438 3.691406 -0.640625 2.359375 -0.640625 Z M 1.359375 -0.640625 "/></g></g></g><g fill="#ffffff" fill-opacity="1"><g transform="translate(194.021142, 230.118958)"><g/></g></g><g fill="#ffffff" fill-opacity="1"><g transform="translate(198.903262, 230.118958)"><g><path d="M 2.238281 0.078125 C 3.261719 0.078125 4.089844 -0.53125 4.089844 -1.578125 C 4.089844 -3.621094 1.171875 -3.121094 1.171875 -4.550781 C 1.171875 -5.148438 1.660156 -5.441406 2.21875 -5.441406 C 2.679688 -5.441406 3.058594 -5.25 3.300781 -4.910156 L 3.800781 -5.332031 C 3.46875 -5.75 2.890625 -6.082031 2.199219 -6.082031 C 1.28125 -6.082031 0.53125 -5.480469 0.53125 -4.5 C 0.53125 -2.570312 3.449219 -3.050781 3.449219 -1.558594 C 3.449219 -0.921875 2.921875 -0.558594 2.25 -0.558594 C 1.570312 -0.558594 1.078125 -0.929688 0.871094 -1.480469 L 0.289062 -1.140625 C 0.601562 -0.398438 1.351562 0.078125 2.238281 0.078125 Z M 2.238281 0.078125 "/></g></g></g><g fill="#ffffff" fill-opacity="1"><g transform="translate(205.755447, 230.118958)"><g><path d="M 4.058594 -5.378906 L 4.058594 -6 L 0.78125 -6 L 0.78125 0 L 4.058594 0 L 4.058594 -0.621094 L 1.421875 -0.621094 L 1.421875 -2.691406 L 3.71875 -2.691406 L 3.71875 -3.308594 L 1.421875 -3.308594 L 1.421875 -5.378906 Z M 4.058594 -5.378906 "/></g></g></g><g fill="#ffffff" fill-opacity="1"><g transform="translate(212.887637, 230.118958)"><g><path d="M 3.160156 -2.738281 C 3.949219 -2.851562 4.550781 -3.511719 4.550781 -4.320312 C 4.550781 -5.261719 3.800781 -6 2.878906 -6 L 0.730469 -6 L 0.730469 0 L 1.371094 0 L 1.371094 -2.710938 L 2.5 -2.710938 L 4.199219 0 L 4.929688 0 Z M 1.371094 -3.320312 L 1.371094 -5.359375 L 2.839844 -5.359375 C 3.441406 -5.359375 3.910156 -4.941406 3.910156 -4.339844 C 3.910156 -3.730469 3.449219 -3.320312 2.839844 -3.320312 Z M 1.371094 -3.320312 "/></g></g></g><g fill="#ffffff" fill-opacity="1"><g transform="translate(220.379835, 230.118958)"><g><path d="M 4.351562 -6 L 2.53125 -0.820312 L 0.710938 -6 L 0 -6 L 2.171875 0 L 2.878906 0 L 5.050781 -6 Z M 4.351562 -6 "/></g></g></g><g fill="#ffffff" fill-opacity="1"><g transform="translate(227.902033, 230.118958)"><g><path d="M 0.78125 0 L 1.421875 0 L 1.421875 -6 L 0.78125 -6 Z M 0.78125 0 "/></g></g></g><g fill="#ffffff" fill-opacity="1"><g transform="translate(232.564142, 230.118958)"><g><path d="M 3.570312 0.078125 C 4.71875 0.078125 5.71875 -0.550781 6.25 -1.480469 L 5.699219 -1.789062 C 5.289062 -1.050781 4.488281 -0.558594 3.570312 -0.558594 C 2.21875 -0.558594 1.128906 -1.640625 1.128906 -3 C 1.128906 -4.359375 2.21875 -5.441406 3.570312 -5.441406 C 4.488281 -5.441406 5.289062 -4.949219 5.699219 -4.210938 L 6.25 -4.519531 C 5.71875 -5.449219 4.71875 -6.082031 3.570312 -6.082031 C 1.871094 -6.082031 0.488281 -4.699219 0.488281 -3 C 0.488281 -1.300781 1.871094 0.078125 3.570312 0.078125 Z M 3.570312 0.078125 "/></g></g></g><g fill="#ffffff" fill-opacity="1"><g transform="translate(241.616382, 230.118958)"><g><path d="M 4.058594 -5.378906 L 4.058594 -6 L 0.78125 -6 L 0.78125 0 L 4.058594 0 L 4.058594 -0.621094 L 1.421875 -0.621094 L 1.421875 -2.691406 L 3.71875 -2.691406 L 3.71875 -3.308594 L 1.421875 -3.308594 L 1.421875 -5.378906 Z M 4.058594 -5.378906 "/></g></g></g><g fill="#ffffff" fill-opacity="1"><g transform="translate(248.748577, 230.118958)"><g><path d="M 2.238281 0.078125 C 3.261719 0.078125 4.089844 -0.53125 4.089844 -1.578125 C 4.089844 -3.621094 1.171875 -3.121094 1.171875 -4.550781 C 1.171875 -5.148438 1.660156 -5.441406 2.21875 -5.441406 C 2.679688 -5.441406 3.058594 -5.25 3.300781 -4.910156 L 3.800781 -5.332031 C 3.46875 -5.75 2.890625 -6.082031 2.199219 -6.082031 C 1.28125 -6.082031 0.53125 -5.480469 0.53125 -4.5 C 0.53125 -2.570312 3.449219 -3.050781 3.449219 -1.558594 C 3.449219 -0.921875 2.921875 -0.558594 2.25 -0.558594 C 1.570312 -0.558594 1.078125 -0.929688 0.871094 -1.480469 L 0.289062 -1.140625 C 0.601562 -0.398438 1.351562 0.078125 2.238281 0.078125 Z M 2.238281 0.078125 "/></g></g></g></svg>